{"title":"Real Madrid Barcelona 18.01.2012 1.yarÄ±","uid":6966257,"size":1843394560,"categoryP":"video","categoryS":"other","magnet":"?xt=urn:btih:f4bfcdc6ecb149fc1b24d09bede7cde72a8de1fe&amp;dn=Real+Madrid+Barcelona+18.01.2012+1.yar%26Auml%3B%26plusmn%3B&amp;tr=udp%3A%2F%2Ftracker.openbittorrent.com%3A80&amp;tr=udp%3A%2F%2Fopen.demonii.com%3A1337&amp;tr=udp%3A%2F%2Ftracker.coppersurfer.tk%3A6969&amp;tr=udp%3A%2F%2Fexodus.desync.com%3A6969","seeders":0,"leechers":0,"uploader":"zsoca6","files":1,"time":1326932309,"description":"Format                         : MPEG-PS\nFile size                      : 1.58 GiB\nDuration                       : 49mn 35s\nOverall bit rate               : 4 568 Kbps\n\nVideo\nID                             : 224 (0xE0)\nFormat                         : MPEG Video\nFormat version                 : Version 2\nFormat profile                 : Main@Main\nFormat settings, BVOP          : Yes\nFormat settings, Matrix        : Custom\nFormat settings, GOP           : M=3, N=26\nDuration                       : 49mn 34s\nBit rate                       : 4 285 Kbps\nMaximum bit rate               : 4 090 Kbps\nWidth                          : 720 pixels\nHeight                         : 576 pixels\nDisplay aspect ratio           : 4:3\nFrame rate                     : 25.000 fps\nStandard                       : PAL\nColor space                    : YUV\nChroma subsampling             : 4:2:0\nBit depth                      : 8 bits\nScan type                      : Interlaced\nScan order                     : Top Field First\nCompression mode               : Lossy\nBits/(Pixel*Frame)             : 0.413\nStream size                    : 1.48 GiB (94%)\n\nAudio\nID                             : 192 (0xC0)\nFormat                         : MPEG Audio\nFormat version                 : Version 1\nFormat profile                 : Layer 2\nDuration                       : 49mn 35s\nBit rate mode                  : Constant\nBit rate                       : 192 Kbps\nChannel(s)                     : 2 channels\nSampling rate                  : 48.0 KHz\nCompression mode               : Lossy\nDelay relative to video        : -300ms\nStream size                    : 68.1 MiB (4%)\n","torrent":{"xt":"urn:btih:f4bfcdc6ecb149fc1b24d09bede7cde72a8de1fe","amp;dn":"Real+Madrid+Barcelona+18.01.2012+1.yar%26Auml%3B%26plusmn%3B","amp;tr":["udp%3A%2F%2Ftracker.openbittorrent.com%3A80","udp%3A%2F%2Fopen.demonii.com%3A1337","udp%3A%2F%2Ftracker.coppersurfer.tk%3A6969","udp%3A%2F%2Fexodus.desync.com%3A6969"],"infoHash":"f4bfcdc6ecb149fc1b24d09bede7cde72a8de1fe","infoHashBuffer":{"type":"Buffer","data":[244,191,205,198,236,177,73,252,27,36,208,155,237,231,205,231,42,141,225,254]},"announce":[],"urlList":[]}}